<svg xmlns="http://www.w3.org/2000/svg" width="100" height="66.667" viewBox="0 0 100 66.667">
  <path id="picto-mastercard" d="M64.437,55.85a1.336,1.336,0,1,1-1.329-1.412A1.321,1.321,0,0,1,64.437,55.85ZM36.046,54.442a1.415,1.415,0,1,0,1.329,1.412A1.324,1.324,0,0,0,36.046,54.442ZM50.175,54.4A1.133,1.133,0,0,0,49,55.467h2.288A1.093,1.093,0,0,0,50.175,54.4Zm21.833.046a1.415,1.415,0,1,0,1.329,1.412A1.324,1.324,0,0,0,72.008,54.442ZM100,12.333v50a8.336,8.336,0,0,1-8.333,8.333H8.333A8.336,8.336,0,0,1,0,62.333v-50A8.336,8.336,0,0,1,8.333,4H91.667A8.336,8.336,0,0,1,100,12.333ZM23.1,33.1A16.6,16.6,0,0,0,48.437,47.225a18.421,18.421,0,0,1,0-28.242A16.6,16.6,0,0,0,23.1,33.1Zm9.775,22.183a1.643,1.643,0,0,0-1.733-1.754,1.715,1.715,0,0,0-1.55.783,1.621,1.621,0,0,0-1.458-.783,1.456,1.456,0,0,0-1.292.654v-.546h-.958V58.05h.967V55.6a1.031,1.031,0,0,1,1.079-1.171c.637,0,.958.417.958,1.162V58.05h.967V55.6a1.038,1.038,0,0,1,1.079-1.171c.654,0,.967.417.967,1.162V58.05h.975Zm5.4-1.642h-.958v.533a1.675,1.675,0,0,0-1.392-.646,2.32,2.32,0,0,0,0,4.633,1.67,1.67,0,0,0,1.392-.646v.533h.958Zm4.85,3.083c0-.775-.579-1.179-1.542-1.321l-.45-.067c-.417-.054-.746-.138-.746-.433,0-.325.313-.517.838-.517a2.835,2.835,0,0,1,1.375.379L43.021,54a3.3,3.3,0,0,0-1.8-.463c-1.117,0-1.833.533-1.833,1.412,0,.721.533,1.162,1.521,1.3l.45.067c.525.075.775.213.775.463,0,.342-.35.533-1,.533a2.351,2.351,0,0,1-1.467-.463l-.45.746a3.147,3.147,0,0,0,1.908.575c1.271,0,2.008-.6,2.008-1.437Zm4.271,1.1L47.125,57a1.772,1.772,0,0,1-.85.25c-.479,0-.638-.3-.638-.737V54.525H47.2V53.65H45.637V52.312h-.967V53.65h-.9v.875h.9v2.013c0,1.025.4,1.633,1.529,1.633a2.289,2.289,0,0,0,1.2-.346Zm4.888-1.975a2.115,2.115,0,0,0-2.1-2.317,2.319,2.319,0,0,0,.063,4.633,2.7,2.7,0,0,0,1.808-.617l-.471-.708a2.1,2.1,0,0,1-1.283.463,1.23,1.23,0,0,1-1.321-1.079h3.275l.025-.375Zm3.783-2.192-.683-.121a1.3,1.3,0,0,0-1.162.646V53.65h-.95v4.408h.958V55.583c0-.729.313-1.133.942-1.133l.6.113.3-.9Zm1.283,2.192a1.319,1.319,0,0,1,1.329-1.412,1.943,1.943,0,0,1,1.154.4l.463-.775a2.3,2.3,0,0,0-1.587-.525,2.317,2.317,0,1,0,0,4.633,2.309,2.309,0,0,0,1.587-.525l-.463-.775a1.934,1.934,0,0,1-1.154.4,1.316,1.316,0,0,1-1.325-1.413Zm7.983-2.2h-.958v.533a1.675,1.675,0,0,0-1.392-.646,2.32,2.32,0,0,0,0,4.633,1.67,1.67,0,0,0,1.392-.646v.533h.958Zm4.058.012-.683-.121a1.3,1.3,0,0,0-1.162.646V53.65H66.6v4.408h.958V55.583c0-.729.313-1.133.942-1.133l.6.113.3-.9Zm4.842-1.783h-.958v2.3a1.675,1.675,0,0,0-1.392-.646,2.32,2.32,0,0,0,0,4.633,1.67,1.67,0,0,0,1.392-.646v.533h.958ZM76.9,33.1a16.6,16.6,0,1,0-16.6,16.6A16.606,16.606,0,0,0,76.9,33.1Z" transform="translate(0 -4)" fill="#f1f1f1"/>
</svg>
