<svg xmlns="http://www.w3.org/2000/svg" width="596" height="772.257" viewBox="0 0 596 772.257">
  <g id="BackPin" fill="rgba(0,0,0,0.63)">
    <path d="M 298.543701171875 770.7570190429688 C 298.3749084472656 770.7570190429688 298.2124938964844 770.7545166015625 298.0473022460938 770.749267578125 C 294.5882873535156 770.6402587890625 290.3543090820313 769.4012451171875 285.4627075195313 767.0667114257813 C 280.5917053222656 764.7420654296875 275.033203125 761.3109130859375 268.94140625 756.8687133789063 C 256.8797912597656 748.0730590820313 242.8804931640625 735.484619140625 227.3323974609375 719.4530639648438 C 195.7855072021484 686.9253540039063 160.4564056396484 642.8292236328125 127.8532028198242 595.2879638671875 C 91.83509826660156 542.767333984375 61.29619979858398 489.2967529296875 39.53779983520508 440.65673828125 C 27.49390029907227 413.7330322265625 18.16250038146973 388.3310241699219 11.80300045013428 365.1564331054688 C 8.451899528503418 352.9450378417969 5.884900093078613 341.1828308105469 4.172999858856201 330.196533203125 C 2.399300098419189 318.8133239746094 1.5 307.9808349609375 1.5 298.0000305175781 C 1.5 277.8819274902344 3.526700019836426 257.7768249511719 7.523799896240234 238.2433319091797 C 11.41919994354248 219.20703125 17.2317008972168 200.4823455810547 24.79980087280273 182.5893402099609 C 32.2307014465332 165.0207366943359 41.4281005859375 148.0758361816406 52.13660049438477 132.2251434326172 C 62.74369812011719 116.5245361328125 74.92520141601563 101.7604370117188 88.34279632568359 88.34283447265625 C 101.7603988647461 74.92523956298828 116.5244979858398 62.74373626708984 132.22509765625 52.13663864135742 C 148.0758056640625 41.42813873291016 165.0207061767578 32.23073959350586 182.5892944335938 24.79983901977539 C 200.4822998046875 17.23173904418945 219.2070007324219 11.41923809051514 238.2433013916016 7.523838043212891 C 257.7767944335938 3.526738166809082 277.8818969726563 1.500038146972656 298 1.500038146972656 C 318.1181030273438 1.500038146972656 338.2231140136719 3.526738166809082 357.756591796875 7.523838043212891 C 376.7929077148438 11.41923809051514 395.5176086425781 17.23173904418945 413.4107055664063 24.79983901977539 C 430.9791870117188 32.23073959350586 447.9241027832031 41.42813873291016 463.77490234375 52.13663864135742 C 479.4754028320313 62.74373626708984 494.239501953125 74.92523956298828 507.6571044921875 88.34283447265625 C 521.07470703125 101.7604370117188 533.2562255859375 116.5245361328125 543.86328125 132.2251434326172 C 554.57177734375 148.0758361816406 563.769287109375 165.0207366943359 571.2001953125 182.5893402099609 C 578.768310546875 200.4823455810547 584.5806884765625 219.20703125 588.47607421875 238.2433319091797 C 592.4733276367188 257.7768249511719 594.5 277.8819274902344 594.5 298.0000305175781 C 594.5 307.9514465332031 593.6060180664063 318.763427734375 591.8427734375 330.1356506347656 C 590.1406860351563 341.1137390136719 587.58837890625 352.8748474121094 584.2567138671875 365.0921325683594 C 577.9296264648438 388.2936401367188 568.6488037109375 413.7367248535156 556.672119140625 440.7147521972656 C 534.9669799804688 489.6065368652344 504.5653076171875 543.2388305664063 468.7538146972656 595.8135375976563 C 436.1440124511719 643.6879272460938 400.8974914550781 687.8565673828125 369.5071105957031 720.1829223632813 C 353.94580078125 736.208251953125 339.9294128417969 748.726318359375 327.8472900390625 757.3895263671875 C 321.7334899902344 761.7732543945313 316.148193359375 765.130859375 311.2463989257813 767.3690185546875 C 306.3228149414063 769.6171264648438 302.0490112304688 770.7570190429688 298.543701171875 770.7570190429688 Z" stroke="none"/>
    <path d="M 298 2.99993896484375 C 277.9826965332031 2.99993896484375 257.9787902832031 5.01641845703125 238.5440063476563 8.99334716796875 C 219.6047058105469 12.86883544921875 200.9754028320313 18.6517333984375 183.1736145019531 26.18121337890625 C 165.6943054199219 33.574462890625 148.835205078125 42.7252197265625 133.0647888183594 53.3795166015625 C 117.4433898925781 63.93316650390625 102.7536010742188 76.0533447265625 89.40350341796875 89.4034423828125 C 76.05340576171875 102.7535400390625 63.9332275390625 117.443359375 53.37957763671875 133.0647583007813 C 42.72528076171875 148.8352661132813 33.57440185546875 165.6943359375 26.1812744140625 183.1736450195313 C 18.65179443359375 200.9754638671875 12.868896484375 219.604736328125 8.993408203125 238.5440673828125 C 5.0164794921875 257.9788208007813 3 277.9827270507813 3 298.0000305175781 C 3 307.9037475585938 3.893310546875 318.6585388183594 5.65509033203125 329.9656372070313 C 7.3582763671875 340.8961486816406 9.91339111328125 352.6025390625 13.24951171875 364.7595520019531 C 19.58892822265625 387.8606262207031 28.89422607421875 413.1900329589844 40.906982421875 440.0441284179688 C 62.62921142578125 488.6031494140625 93.12240600585938 541.9921264648438 129.0902099609375 594.4395751953125 C 161.6470947265625 641.913330078125 196.9193115234375 685.9397583007813 228.4092102050781 718.4087524414063 C 243.8980102539063 734.379150390625 257.8323974609375 746.9111328125 269.8251953125 755.65673828125 C 275.8424987792969 760.0446166992188 281.3210144042969 763.4280395507813 286.1087951660156 765.7130126953125 C 290.8117980957031 767.95751953125 294.8443908691406 769.1475219726563 298.0938110351563 769.2500610351563 C 298.2471923828125 769.2548217773438 298.3901062011719 769.2570190429688 298.543701171875 769.2570190429688 C 301.8324890136719 769.2570190429688 305.8966979980469 768.1627197265625 310.623291015625 766.0045166015625 C 315.4371948242188 763.8065185546875 320.9381103515625 760.4979248046875 326.9732055664063 756.1705322265625 C 338.9830932617188 747.5590209960938 352.9315185546875 735.0995483398438 368.430908203125 719.1380615234375 C 399.7630004882813 686.8716430664063 434.951416015625 642.7742309570313 467.5140991210938 594.9691162109375 C 503.2756958007813 542.4676513671875 533.6318969726563 488.9168395996094 555.3010864257813 440.1060485839844 C 567.2471923828125 413.1971435546875 576.5023193359375 387.8260498046875 582.8095703125 364.6974487304688 C 586.1265258789063 352.5341491699219 588.6669921875 340.8285522460938 590.3604736328125 329.9058532714844 C 592.1119995117188 318.6094360351563 593 307.8747253417969 593 298.0000305175781 C 593 277.9827270507813 590.9835205078125 257.9788208007813 587.006591796875 238.5440673828125 C 583.131103515625 219.604736328125 577.3482055664063 200.9754638671875 569.818603515625 183.1736450195313 C 562.4254760742188 165.6943359375 553.2747192382813 148.8352661132813 542.6204223632813 133.0647583007813 C 532.0667114257813 117.443359375 519.946533203125 102.7535400390625 506.5964050292969 89.4034423828125 C 493.2463073730469 76.0533447265625 478.5566101074219 63.93316650390625 462.9351196289063 53.3795166015625 C 447.1647033691406 42.7252197265625 430.3056030273438 33.574462890625 412.8262939453125 26.18121337890625 C 395.0245056152344 18.6517333984375 376.3952026367188 12.86883544921875 357.4559020996094 8.99334716796875 C 338.0212097167969 5.01641845703125 318.0173034667969 2.99993896484375 298 2.99993896484375 M 298 -6.103515625e-05 C 462.5806884765625 -6.103515625e-05 596 133.4191284179688 596 298.0000305175781 C 596 462.0785827636719 359.1349182128906 772.2570190429688 298.5436706542969 772.2570190429688 C 298.3582153320313 772.2570190429688 298.1821594238281 772.2542724609375 298 772.24853515625 C 238.3096008300781 770.3663330078125 0 462.5808410644531 0 298.0000305175781 C 0 133.4191284179688 133.4190979003906 -6.103515625e-05 298 -6.103515625e-05 Z" stroke="none" fill="#fff"/>
  </g>
</svg>
