<svg xmlns="http://www.w3.org/2000/svg" width="596" height="772.257" viewBox="0 0 596 772.257">
  <g id="BackPin" fill="rgba(255,255,255,0.5)">
    <path d="M 298.543701171875 769.7570190429688 C 298.38330078125 769.7570190429688 298.235595703125 769.7547607421875 298.0787963867188 769.749755859375 C 294.7590026855469 769.6451416015625 290.6593017578125 768.438720703125 285.8934020996094 766.1642456054688 C 281.0779113769531 763.8660278320313 275.5726928710938 760.4667358398438 269.5306091308594 756.0607299804688 C 257.5148010253906 747.2985229492188 243.5588073730469 734.7476196289063 228.0502014160156 718.7568359375 C 196.5413970947266 686.268310546875 161.2501983642578 642.2186279296875 128.6779022216797 594.7223510742188 C 92.69329833984375 542.2505493164063 62.18479919433594 488.8343505859375 40.45059967041016 440.2483520507813 C 28.42740058898926 413.3710327148438 19.11339950561523 388.0174255371094 12.76729965209961 364.891845703125 C 9.426199913024902 352.7167358398438 6.867099761962891 340.9917297363281 5.161099910736084 330.0425415039063 C 3.395299911499023 318.7101440429688 2.5 307.929443359375 2.5 298.0000305175781 C 2.5 277.9491271972656 4.519899845123291 257.9115295410156 8.503499984741211 238.4438323974609 C 12.38570022583008 219.4721374511719 18.17840003967285 200.81103515625 25.72080039978027 182.9788360595703 C 33.12649917602539 165.4698333740234 42.29290008544922 148.5821380615234 52.96530151367188 132.7849426269531 C 63.53670120239258 117.1371383666992 75.67729949951172 102.4225387573242 89.04989624023438 89.04993438720703 C 102.4225006103516 75.67733764648438 117.1371002197266 63.53673934936523 132.7848968505859 52.96533966064453 C 148.5821075439453 42.29293823242188 165.4698028564453 33.12653732299805 182.9788055419922 25.72083854675293 C 200.8110046386719 18.17843818664551 219.4721069335938 12.38573837280273 238.4438018798828 8.503538131713867 C 257.9114990234375 4.519937992095947 277.9490966796875 2.500038146972656 298 2.500038146972656 C 318.0509033203125 2.500038146972656 338.0885009765625 4.519937992095947 357.5562133789063 8.503538131713867 C 376.5278015136719 12.38573837280273 395.1889038085938 18.17843818664551 413.0210876464844 25.72083854675293 C 430.5300903320313 33.12653732299805 447.4177856445313 42.29293823242188 463.2149963378906 52.96533966064453 C 478.86279296875 63.53673934936523 493.577392578125 75.67733764648438 506.9500122070313 89.04993438720703 C 520.3225708007813 102.4225387573242 532.4631958007813 117.1371383666992 543.0347290039063 132.7849426269531 C 553.7070922851563 148.5821380615234 562.8734130859375 165.4698333740234 570.2791748046875 182.9788360595703 C 577.8214721679688 200.81103515625 583.6143188476563 219.4721374511719 587.4963989257813 238.4438323974609 C 591.4801025390625 257.9115295410156 593.5 277.9491271972656 593.5 298.0000305175781 C 593.5 307.9003295898438 592.6099853515625 318.6607360839844 590.8546142578125 329.9824523925781 C 589.1583251953125 340.9236450195313 586.61376953125 352.6477355957031 583.2918701171875 364.8290405273438 C 576.9780883789063 387.98193359375 567.7144165039063 413.3770446777344 555.7581176757813 440.3089294433594 C 534.076904296875 489.146728515625 503.7055969238281 542.7247314453125 467.9273986816406 595.2505493164063 C 435.3489074707031 643.078857421875 400.1412048339844 687.199951171875 368.7896118164063 719.486328125 C 353.2695922851563 735.4691162109375 339.2986145019531 747.9481201171875 327.2645874023438 756.5768432617188 C 321.2031860351563 760.9230346679688 315.6741943359375 764.2479248046875 310.8309936523438 766.4593505859375 C 306.0386962890625 768.6475219726563 301.9046936035156 769.7570190429688 298.543701171875 769.7570190429688 Z" stroke="none"/>
    <path d="M 298 4.99993896484375 C 278.1170959472656 4.99993896484375 258.2481079101563 7.00274658203125 238.9450073242188 10.9527587890625 C 220.135009765625 14.80181884765625 201.6329040527344 20.545166015625 183.9526977539063 28.02325439453125 C 166.59228515625 35.36614990234375 149.8478088378906 44.4547119140625 134.1843872070313 55.036865234375 C 118.6683959960938 65.5191650390625 104.0777893066406 77.55755615234375 90.81768798828125 90.817626953125 C 77.5576171875 104.0777587890625 65.51922607421875 118.66845703125 55.03680419921875 134.184326171875 C 44.45477294921875 149.8478393554688 35.3662109375 166.5923461914063 28.0233154296875 183.9527587890625 C 20.54522705078125 201.6329345703125 14.8018798828125 220.135009765625 10.95281982421875 238.945068359375 C 7.0028076171875 258.2481079101563 5 278.1171264648438 5 298.0000305175781 C 5 307.8009338378906 5.88531494140625 318.4521484375 7.63128662109375 329.6576232910156 C 9.3228759765625 340.5139465332031 11.86199951171875 352.1458435058594 15.17822265625 364.230224609375 C 21.49072265625 387.2333374023438 30.76141357421875 412.4661254882813 42.73272705078125 439.2275390625 C 64.406494140625 487.6783447265625 94.83880615234375 540.9586181640625 130.7395935058594 593.3084716796875 C 163.2348022460938 640.692138671875 198.4309997558594 684.625732421875 229.8447875976563 717.016357421875 C 245.2546997070313 732.9052124023438 259.1025085449219 745.362060546875 271.0036926269531 754.0407104492188 C 276.9215087890625 758.3562622070313 282.2933959960938 761.676025390625 286.97021484375 763.9080200195313 C 291.4218139648438 766.0325317382813 295.185791015625 767.1573486328125 298.1563110351563 767.2509155273438 C 298.2883911132813 767.255126953125 298.4114990234375 767.2570190429688 298.543701171875 767.2570190429688 C 301.5439147949219 767.2570190429688 305.32861328125 766.2235107421875 309.7926025390625 764.1852416992188 C 314.4891967773438 762.0408325195313 319.8774108886719 758.7974243164063 325.8078002929688 754.5452270507813 C 337.7214965820313 746.0027465820313 351.5791931152344 733.6212158203125 366.99609375 717.7447509765625 C 398.2503051757813 685.5584716796875 433.3612976074219 641.5560302734375 465.861083984375 593.8431396484375 C 501.5562133789063 541.439453125 531.8519287109375 487.9973449707031 553.4732055664063 439.2945251464844 C 565.3782958984375 412.4777526855469 574.5993041992188 387.20263671875 580.8800048828125 364.1712341308594 C 584.1773071289063 352.0800476074219 586.7020874023438 340.4483337402344 588.3840942382813 329.5994262695313 C 590.119873046875 318.404052734375 591 307.7724304199219 591 298.0000305175781 C 591 278.1171264648438 588.9971923828125 258.2481079101563 585.0471801757813 238.945068359375 C 581.1981201171875 220.135009765625 575.4547729492188 201.6329345703125 567.9766235351563 183.9527587890625 C 560.6337890625 166.5923461914063 551.5452270507813 149.8478393554688 540.9630737304688 134.184326171875 C 530.4807739257813 118.66845703125 518.4423217773438 104.0777587890625 505.1821899414063 90.817626953125 C 491.9220886230469 77.55755615234375 477.3314819335938 65.5191650390625 461.8154907226563 55.036865234375 C 446.152099609375 44.4547119140625 429.4075927734375 35.36614990234375 412.0471801757813 28.02325439453125 C 394.3670043945313 20.545166015625 375.8648986816406 14.80181884765625 357.0549926757813 10.9527587890625 C 337.7518920898438 7.00274658203125 317.8829040527344 4.99993896484375 298 4.99993896484375 M 298 -6.103515625e-05 C 462.5806884765625 -6.103515625e-05 596 133.4191284179688 596 298.0000305175781 C 596 462.0785827636719 359.1349182128906 772.2570190429688 298.5436706542969 772.2570190429688 C 298.3582153320313 772.2570190429688 298.1821594238281 772.2542724609375 298 772.24853515625 C 238.3096008300781 770.3663330078125 0 462.5808410644531 0 298.0000305175781 C 0 133.4191284179688 133.4190979003906 -6.103515625e-05 298 -6.103515625e-05 Z" stroke="none" fill="#1f1f1f"/>
  </g>
</svg>
