<svg xmlns="http://www.w3.org/2000/svg" width="100" height="66.667" viewBox="0 0 100 66.667">
  <path id="picto-visa" d="M81.925,33.817l1.563,7.15h-5.6l2.687-6.921.9-2.363.454,2.133ZM100,12.333v50a8.336,8.336,0,0,1-8.333,8.333H8.333A8.336,8.336,0,0,1,0,62.333v-50A8.336,8.336,0,0,1,8.333,4H91.667A8.336,8.336,0,0,1,100,12.333ZM28.558,49.712l10.621-24.7H32.033l-6.6,16.879-.7-3.429L22.358,27.083c-.408-1.571-1.6-2.037-3.058-2.092H8.421l-.088.513a28.536,28.536,0,0,1,7.088,2.712l6,21.5,7.138,0Zm20.1-24.725H41.908L37.692,49.742h6.746ZM67.925,41.65c.025-2.817-1.771-4.958-5.662-6.725-2.358-1.146-3.8-1.908-3.787-3.067,0-1.029,1.221-2.129,3.862-2.129a12.41,12.41,0,0,1,5.05.95l.6.283L68.9,25.6a17.366,17.366,0,0,0-6.046-1.042c-6.667,0-11.362,3.358-11.4,8.171-.037,3.558,3.354,5.542,5.912,6.725,2.625,1.212,3.508,1.987,3.5,3.071-.017,1.658-2.1,2.417-4.038,2.417a14.133,14.133,0,0,1-6.35-1.3l-.871-.4-.946,5.542a21.307,21.307,0,0,0,7.517,1.321C63.267,50.108,67.871,46.787,67.925,41.65Zm23.742,8.1L86.2,25.012H80.992a3.356,3.356,0,0,0-3.533,2.054L67.437,49.75h7.083l1.421-3.721,8.642.013L85.4,49.75Z" transform="translate(0 -4)" fill="#f1f1f1"/>
</svg>
