<svg xmlns="http://www.w3.org/2000/svg" width="100" height="66.667" viewBox="0 0 100 66.667">
  <path id="picto-paypal" d="M91.667,4H8.333A8.336,8.336,0,0,0,0,12.333v50a8.336,8.336,0,0,0,8.333,8.333H91.667A8.336,8.336,0,0,0,100,62.333v-50A8.336,8.336,0,0,0,91.667,4ZM44.617,50.292H39.075a.885.885,0,0,1-.883-.933c.1-1.6,1.025-6.838,4.225-27.442a1.46,1.46,0,0,1,1.442-1.25h10.2c5.458,0,9.487,3.2,8.375,8.946-1.146,5.971-4.792,8.875-11.142,8.875l-3.138,0c-1.288,0-1.763.492-1.925,1.637ZM65.737,36.483c-1.175,6.137-5.2,8.258-10.346,8.258h-.8a1.284,1.284,0,0,0-1.263,1.1l-1.117,7.071A1.276,1.276,0,0,1,50.958,54h-3.8a.881.881,0,0,1-.871-1.017L48.212,40.65a.09.09,0,0,1,.088-.079h2.992c7.271,0,11.817-3.638,13.158-10.512a5.665,5.665,0,0,1,1.525,4.167A12.34,12.34,0,0,1,65.737,36.483Z" transform="translate(0 -4)" fill="#f1f1f1"/>
</svg>
