<svg xmlns="http://www.w3.org/2000/svg" width="100" height="100.003" viewBox="0 0 100 100.003">
  <path id="picto-phone" d="M66.666,94.258,51.995,65.944c-.029.017-8.225,4.042-8.6,4.213-9.334,4.525-28.33-32.585-19.2-37.476l8.675-4.275L18.314,0,9.539,4.329C2.781,7.85-.036,15.276,0,24.509.114,53.269,27.965,99.566,50.887,100a15.876,15.876,0,0,0,6.988-1.438c.5-.229,8.759-4.288,8.792-4.3ZM83.334,70.836H79.167V16.667h4.167ZM75,62.5H70.833V25H75Zm16.667-4.167H87.5V29.168h4.167Zm-25-4.167H62.5V33.335h4.167ZM58.333,50H54.166V37.5h4.167ZM100,50H95.834V37.5H100ZM50,45.835H45.832V41.668H50Z" transform="translate(-0.001)" fill="#f1f1f1" fill-rule="evenodd"/>
</svg>
