<svg xmlns="http://www.w3.org/2000/svg" width="21.975" height="22" viewBox="0 0 21.975 22">
  <g id="noun_cart_2102832_4_" data-name="noun_cart_2102832 (4)" transform="translate(-6.03 -6)">
    <path id="Tracé_5" data-name="Tracé 5" d="M6.917,7.833H8.448l2.3,10.355A3.289,3.289,0,0,0,8.872,21.23,3.133,3.133,0,0,0,11.834,24.5H23.988a.917.917,0,1,0,0-1.833H11.833A1.332,1.332,0,0,1,10.7,21.231a1.332,1.332,0,0,1,1.128-1.442h12.16a.917.917,0,0,0,.863-.606l3.1-8.591a.917.917,0,0,0-.863-1.227H10.665l-.586-2.646A.916.916,0,0,0,9.184,6H6.917a.917.917,0,0,0,0,1.833ZM25.779,11.2l-2.435,6.758H12.568l-1.5-6.758H25.779Z" fill="#fff"/>
    <path id="Tracé_6" data-name="Tracé 6" d="M19.261,50a.917.917,0,0,0,0,1.833h1.164a.917.917,0,1,0,0-1.833Z" transform="translate(-6.687 -23.833)" fill="#fff"/>
    <path id="Tracé_7" data-name="Tracé 7" d="M37.713,50a.917.917,0,0,0,0,1.833h1.164a.917.917,0,1,0,0-1.833Z" transform="translate(-16.682 -23.833)" fill="#fff"/>
  </g>
</svg>
