<svg xmlns="http://www.w3.org/2000/svg" width="125" height="104.167" viewBox="0 0 125 104.167">
  <path id="picto-delivery" d="M20.833,90.542H15.625a5.21,5.21,0,0,1-5.208-5.208V74.917H78.125V28.042h24.307c5.818,0,8.333,3,10.083,5.766,3.094,4.9,8,12.667,10.984,17.594a10.449,10.449,0,0,1,1.5,5.391V80.125c0,5.932-3.87,10.417-10.417,10.417h-5.208a15.625,15.625,0,0,1-31.25,0H52.083a15.625,15.625,0,1,1-31.25,0Zm15.625-6.25a6.25,6.25,0,1,1-6.25,6.25A6.255,6.255,0,0,1,36.458,84.292Zm57.292,0a6.25,6.25,0,1,1-6.25,6.25A6.255,6.255,0,0,1,93.75,84.292ZM10.417,52.734A28.64,28.64,0,1,1,50.734,12.417H67.708a5.21,5.21,0,0,1,5.208,5.208V69.708h-62.5ZM88.542,38.458V54.083H113.1l-7.432-13a5.2,5.2,0,0,0-4.521-2.625Zm-59.9-26.042A18.229,18.229,0,1,1,10.417,30.646,18.236,18.236,0,0,1,28.646,12.417Zm2.6,15.625H41.667V33.25H26.042V17.625H31.25Z" transform="translate(0 -2)" fill="#f1f1f1" fill-rule="evenodd"/>
</svg>
